<svg width="50" height="50" viewBox="0 0 50 50" fill="none" xmlns="http://www.w3.org/2000/svg">
<path d="M34.8049 36.6106L25.4934 27.2919L16.1819 36.6106C16.0643 36.7307 15.9236 36.8254 15.7686 36.8901C15.6135 36.9549 15.4472 36.9883 15.2792 36.9875C15.0262 36.9879 14.7789 36.9134 14.5685 36.7728C14.358 36.6323 14.1939 36.4328 14.0972 36.1988C14.0005 35.9649 13.9751 35.7059 14.0249 35.4576C14.0746 35.2094 14.1971 34.9823 14.3765 34.8038L23.6879 25.485L14.3765 16.1663C14.1439 15.9253 14.0151 15.6029 14.018 15.2678C14.0209 14.9328 14.1553 14.6113 14.3921 14.3744C14.6288 14.1375 14.9488 14.003 15.2836 14C15.6183 13.9971 15.9411 14.1267 16.1819 14.3594L25.4934 23.6782L34.8049 14.3594C35.0457 14.1267 35.3685 13.9971 35.7032 14C36.038 14.003 36.358 14.1375 36.5947 14.3744C36.8314 14.6113 36.9659 14.9328 36.9688 15.2678C36.9717 15.6029 36.8429 15.9253 36.6103 16.1663L27.2988 25.485L36.6103 34.8038C36.7323 34.9216 36.8295 35.0622 36.8965 35.2181C36.9634 35.374 36.9985 35.5425 37 35.7122C37.0014 35.8819 36.9694 36.0493 36.9052 36.2063C36.841 36.3634 36.7458 36.5056 36.6259 36.6256C36.506 36.7456 36.3639 36.8409 36.207 36.9051C36.05 36.9694 35.8815 37.0014 35.712 37C35.5424 36.9985 35.3752 36.9646 35.2194 36.8976C35.0637 36.8307 34.9226 36.7327 34.8049 36.6106Z" fill="#C4C4C4"/>
</svg>
