<svg width="30" height="30" viewBox="0 0 30 30" fill="none" xmlns="http://www.w3.org/2000/svg">
<g clip-path="url(#clip0_5326_8541)">
<path opacity="0.851" d="M15 30C23.2843 30 30 23.2843 30 15C30 6.71573 23.2843 0 15 0C6.71573 0 0 6.71573 0 15C0 23.2843 6.71573 30 15 30Z" fill="#FF153C"/>
<path d="M7.38234 20.5V18.7H9.78234V11.695H7.75734V10.315C8.31734 10.215 8.79734 10.095 9.19734 9.955C9.60734 9.805 9.98734 9.615 10.3373 9.385H11.9723V18.7H14.0573V20.5H7.38234ZM18.825 20.71C18.135 20.71 17.535 20.585 17.025 20.335C16.525 20.085 16.11 19.79 15.78 19.45L16.95 18.115C17.15 18.345 17.41 18.535 17.73 18.685C18.05 18.835 18.375 18.91 18.705 18.91C19.025 18.91 19.33 18.84 19.62 18.7C19.91 18.55 20.16 18.315 20.37 17.995C20.59 17.665 20.76 17.23 20.88 16.69C21.01 16.15 21.075 15.485 21.075 14.695C21.075 13.745 20.985 12.99 20.805 12.43C20.635 11.87 20.405 11.47 20.115 11.23C19.825 10.98 19.495 10.855 19.125 10.855C18.855 10.855 18.605 10.93 18.375 11.08C18.145 11.23 17.96 11.455 17.82 11.755C17.69 12.055 17.625 12.435 17.625 12.895C17.625 13.325 17.69 13.685 17.82 13.975C17.95 14.255 18.13 14.465 18.36 14.605C18.6 14.745 18.88 14.815 19.2 14.815C19.51 14.815 19.83 14.72 20.16 14.53C20.49 14.34 20.79 14.02 21.06 13.57L21.165 15.055C20.975 15.325 20.74 15.56 20.46 15.76C20.19 15.96 19.91 16.115 19.62 16.225C19.33 16.335 19.05 16.39 18.78 16.39C18.17 16.39 17.625 16.265 17.145 16.015C16.665 15.755 16.285 15.37 16.005 14.86C15.735 14.34 15.6 13.685 15.6 12.895C15.6 12.135 15.76 11.48 16.08 10.93C16.4 10.37 16.825 9.94 17.355 9.64C17.885 9.34 18.465 9.19 19.095 9.19C19.625 9.19 20.125 9.3 20.595 9.52C21.075 9.73 21.5 10.06 21.87 10.51C22.25 10.95 22.545 11.52 22.755 12.22C22.975 12.91 23.085 13.735 23.085 14.695C23.085 15.745 22.97 16.65 22.74 17.41C22.51 18.16 22.19 18.78 21.78 19.27C21.38 19.76 20.925 20.125 20.415 20.365C19.905 20.595 19.375 20.71 18.825 20.71Z" fill="white"/>
</g>
<defs>
<clipPath id="clip0_5326_8541">
<rect width="30" height="30" fill="white"/>
</clipPath>
</defs>
</svg>
