<svg width="114" height="20" viewBox="0 0 114 20" fill="none" xmlns="http://www.w3.org/2000/svg">
<g clip-path="url(#clip0_5326_8566)">
<path d="M40 5.58961V14.389C40 17.9293 38.1907 20 34.9702 20C31.7497 20 30 17.9293 30 14.389V5.58961C30 2.06933 31.7751 0 34.9702 0C38.211 0 40 2.07067 40 5.58961ZM36.64 5.01004C36.64 3.78798 36.0061 3.00228 35.0298 3.00228C34.7907 3.00396 34.5547 3.05903 34.3373 3.16388C34.1198 3.26874 33.9259 3.42099 33.7682 3.61063C33.6104 3.80028 33.4925 4.02302 33.4222 4.26421C33.3518 4.5054 33.3306 4.75958 33.36 5.01004V14.9886C33.3245 15.2377 33.3404 15.492 33.4066 15.734C33.4727 15.976 33.5876 16.2001 33.7433 16.391C33.899 16.5818 34.0918 16.735 34.3087 16.84C34.5256 16.945 34.7614 16.9994 35 16.9994C35.2386 16.9994 35.4744 16.945 35.6913 16.84C35.9082 16.735 36.1011 16.5818 36.2567 16.391C36.4124 16.2001 36.5273 15.976 36.5934 15.734C36.6596 15.492 36.6755 15.2377 36.64 14.9886V5.01004Z" fill="white"/>
<path d="M50.4079 19.9986L48.9067 13.0569H46.5743V19.9986H43V0H48.3499C51.6035 0 53.551 1.75597 53.551 5.142V7.61924C53.5758 8.3581 53.4458 9.09396 53.1693 9.77928C52.8928 10.4646 52.4761 11.0841 51.946 11.5979L54 20L50.4079 19.9986ZM47.7548 10.0938C49.1455 10.0938 49.9166 9.33142 49.9166 7.76706V5.35414C49.9166 3.80894 49.1251 3.02744 47.7548 3.02744H46.6207V10.0951L47.7548 10.0938Z" fill="white"/>
<path d="M56 0H59V20H56V0Z" fill="white"/>
<path d="M64.7118 19.9688C62.6447 19.9488 61 18.3156 61 15.2563V5.58127C61 2.0462 62.7919 0 66.0979 0C69.3297 0 70.9949 1.84038 70.9949 4.71254V7.3174H67.6671V4.98118C67.6671 3.55512 67.0271 2.99646 66.0621 2.99646C65.8245 3.0018 65.5906 3.05874 65.3752 3.16368C65.1599 3.26862 64.9678 3.41924 64.8113 3.60595C64.6548 3.79266 64.5372 4.01137 64.4661 4.24814C64.3949 4.48492 64.3718 4.73456 64.3982 4.98118V14.9663C64.3982 16.3923 65.1008 16.971 66.0441 16.971C66.2716 16.9669 66.4958 16.915 66.7036 16.8184C66.9114 16.7219 67.0985 16.5827 67.2538 16.4091C67.409 16.2356 67.5292 16.0311 67.6073 15.8081C67.6853 15.585 67.7196 15.3478 67.708 15.1106V12.0727H66.0224V9.21926H71V19.7416H68.2098L67.9653 18.1659H67.7247C67.4936 18.7785 67.0695 19.2906 66.5222 19.6177C65.9749 19.9447 65.3372 20.0672 64.7143 19.9648" fill="white"/>
<path d="M74 0H77V20H74V0Z" fill="white"/>
<path d="M86.8206 5.65152V0H90V20H86.7L83.2589 7.91541H83.078L83.1986 12.4651V19.9932H80V0H83.6823L86.7411 10.7733H86.9425L86.8206 5.65152Z" fill="white"/>
<path d="M100.621 15.8733L96.3438 15.8308L95.6998 20H92L95.8889 0H101.176L105 20H101.24L100.621 15.8733ZM100.148 12.847L99.2242 6.77252L98.6007 3.1741H98.365L97.7635 6.77252L96.818 12.847H100.148Z" fill="white"/>
<path d="M114 16.9739V20H106V0H109.444V16.9712L114 16.9739Z" fill="white"/>
<path d="M18.4125 0L14.0626 13.264C14.0357 13.3477 13.9795 13.4191 13.9042 13.4653C13.8288 13.5116 13.7392 13.5295 13.6517 13.516C13.5641 13.5025 13.4843 13.4583 13.4267 13.3916C13.3691 13.3248 13.3375 13.2398 13.3376 13.152V0H0V5.96667H6.44553V20H19.1119L26 0H18.4125Z" fill="#FF153C"/>
</g>
<defs>
<clipPath id="clip0_5326_8566">
<rect width="114" height="20" fill="white"/>
</clipPath>
</defs>
</svg>
