<svg width="30" height="30" viewBox="0 0 30 30" fill="none" xmlns="http://www.w3.org/2000/svg">
<g clip-path="url(#clip0_5326_8544)">
<path d="M26.6145 30H3.37949C2.93518 30 2.49526 29.9124 2.08484 29.7422C1.67443 29.572 1.30157 29.3225 0.987676 29.008C0.673782 28.6936 0.425012 28.3203 0.255529 27.9095C0.0860464 27.4988 -0.000783501 27.0587 5.3268e-06 26.6143V3.38268C-0.000191712 2.93853 0.0870793 2.49868 0.256902 2.08829C0.426725 1.67789 0.675807 1.30501 0.989782 0.990881C1.30376 0.676751 1.67647 0.42752 2.08677 0.257506C2.49707 0.0874929 2.93692 1.28739e-06 3.38105 1.3311e-06H26.616C27.0604 -0.000393034 27.5005 0.0868454 27.9111 0.256682C28.3218 0.426519 28.6949 0.675613 29.0092 0.989782C29.3235 1.30395 29.5727 1.67701 29.7427 2.0876C29.9127 2.49819 30.0002 2.93828 30 3.38268V26.6143C30 27.5111 29.6438 28.3711 29.0098 29.0052C28.3757 29.6393 27.5157 29.9955 26.619 29.9955" fill="#CD1327"/>
<path d="M6.57711 25.5V10.3541H5L7.04448 4.5H11V25.5H6.57711Z" fill="white"/>
<path d="M24.9438 16.8977C24.9174 16.669 24.8567 16.4463 24.7639 16.238C24.6792 16.0576 24.5596 15.8982 24.4128 15.7702C24.2394 15.6232 24.0528 15.4946 23.8558 15.3862L22.5318 14.7265L23.8558 13.983C24.2015 13.7807 24.492 13.4874 24.6991 13.1313C24.888 12.6923 24.9725 12.2111 24.9452 11.7296V4.9693C24.9452 4.84484 24.8985 4.72545 24.8154 4.63745C24.7323 4.54944 24.6196 4.5 24.502 4.5H13.4722C13.3547 4.5 13.2419 4.54944 13.1587 4.63745C13.0756 4.72545 13.0289 4.84484 13.0289 4.9693V11.7296C13.0052 12.206 13.0901 12.6816 13.2764 13.1161C13.4799 13.4792 13.771 13.7784 14.1198 13.983L15.4439 14.7265L14.1198 15.3862C13.7346 15.574 13.4196 15.8926 13.2247 16.2913C13.055 16.7841 12.9802 17.3078 13.0045 17.8317V25.0308C13.0045 25.1552 13.0512 25.2745 13.1343 25.3626C13.2174 25.4506 13.3302 25.5 13.4477 25.5H24.5566C24.6742 25.5 24.7869 25.4506 24.8701 25.3626C24.9532 25.2745 24.9999 25.1552 24.9999 25.0308V17.8317C25.0017 17.5193 24.9829 17.2072 24.9438 16.8977ZM20.5831 21.1638C20.5831 21.2883 20.5364 21.4076 20.4533 21.4956C20.3702 21.5836 20.2574 21.6331 20.1399 21.6331H17.8602C17.7426 21.6331 17.6299 21.5836 17.5468 21.4956C17.4636 21.4076 17.4169 21.2883 17.4169 21.1638V16.9616C17.4169 16.8372 17.4636 16.7178 17.5468 16.6298C17.6299 16.5418 17.7426 16.4924 17.8602 16.4924H20.1399C20.2574 16.4924 20.3702 16.5418 20.4533 16.6298C20.5364 16.7178 20.5831 16.8372 20.5831 16.9616V21.1638ZM20.5831 12.5157C20.5831 12.6402 20.5364 12.7596 20.4533 12.8476C20.3702 12.9356 20.2574 12.985 20.1399 12.985H17.8602C17.7426 12.985 17.6299 12.9356 17.5468 12.8476C17.4636 12.7596 17.4169 12.6402 17.4169 12.5157V8.84078C17.4169 8.71632 17.4636 8.59699 17.5468 8.50898C17.6299 8.42097 17.7426 8.37149 17.8602 8.37149H20.1399C20.2574 8.37149 20.3702 8.42097 20.4533 8.50898C20.5364 8.59699 20.5831 8.71632 20.5831 8.84078V12.5157Z" fill="white"/>
</g>
<defs>
<clipPath id="clip0_5326_8544">
<rect width="30" height="30" fill="white"/>
</clipPath>
</defs>
</svg>
