<svg width="72" height="72" viewBox="0 0 72 72" fill="none" xmlns="http://www.w3.org/2000/svg">
<g clip-path="url(#clip0_5326_8594)">
<path d="M36 66C52.5685 66 66 52.5685 66 36C66 19.4315 52.5685 6 36 6C19.4315 6 6 19.4315 6 36C6 52.5685 19.4315 66 36 66Z" fill="black" fill-opacity="0.43"/>
<path d="M36.5 66C52.7924 66 66 52.7924 66 36.5C66 20.2076 52.7924 7 36.5 7C20.2076 7 7 20.2076 7 36.5C7 52.7924 20.2076 66 36.5 66Z" stroke="white" stroke-width="1.5"/>
<path d="M46.9051 36.8277C46.9342 36.846 46.9581 36.8714 46.9747 36.9015C46.9913 36.9317 47 36.9656 47 37C47 37.0344 46.9913 37.0683 46.9747 37.0985C46.9581 37.1286 46.9342 37.154 46.9051 37.1723L31.3094 46.9691C31.2788 46.9884 31.2436 46.999 31.2074 46.9999C31.1713 47.0009 31.1356 46.9921 31.104 46.9744C31.0724 46.9568 31.0461 46.931 31.0278 46.8996C31.0095 46.8683 30.9999 46.8326 31 46.7963V27.2037C30.9999 27.1674 31.0095 27.1317 31.0278 27.1004C31.0461 27.069 31.0724 27.0432 31.104 27.0256C31.1356 27.0079 31.1713 26.9991 31.2074 27.0001C31.2436 27.001 31.2788 27.0116 31.3094 27.0309L46.9051 36.8277Z" fill="white"/>
</g>
<defs>
<clipPath id="clip0_5326_8594">
<rect width="72" height="72" fill="white"/>
</clipPath>
</defs>
</svg>
