<svg width="504" height="79" viewBox="0 0 504 79" fill="none" xmlns="http://www.w3.org/2000/svg">
<rect width="504" height="79" rx="4" fill="#E93945"/>
<path d="M12 32.1343V19H67L52.5952 63H25.75V32.1343H12Z" fill="black"/>
<path d="M40 49V0H57L40 49Z" fill="white"/>
<path d="M50 19H40V49L50 19Z" fill="#61D4E6"/>
<path d="M120.184 33.8971V29.5937H117.186V34.0914C117.186 38.367 115.52 42.837 111.827 45.0025L113.799 47.2514C116.145 45.8493 117.755 43.3645 118.657 40.4077C119.504 43.0868 121.003 45.2941 123.266 46.5573L125.098 44.1141C121.628 42.2678 120.17 38.131 120.184 33.8971ZM125.431 51.2494H128.347V39.7552H130.929V52.471H133.899V27.3726H130.929V37.2565H128.347V27.8168H125.431V51.2494ZM159.747 47.0015H149.752V42.9203H157.61V40.3938H142.617V37.1454H157.027V29.094H139.48V31.5927H153.973V34.7022H139.535V42.9203H146.698V47.0015H136.815V49.5558H159.747V47.0015ZM182.569 27.4004H179.432V44.364H174.101V46.6961H179.432V52.4432H182.569V27.4004ZM161.274 40.2827L161.663 42.8092C163.523 42.8092 165.606 42.8092 167.799 42.7259V51.6936H170.908V42.5732C173.227 42.4205 175.6 42.1706 177.905 41.782L177.71 39.5053C172.269 40.255 165.994 40.2688 161.274 40.2827ZM163.079 33.5639C163.079 36.6179 165.744 38.603 169.52 38.6169C173.213 38.603 175.906 36.6179 175.906 33.5639C175.906 30.5793 173.213 28.4832 169.52 28.4832C165.744 28.4832 163.079 30.5793 163.079 33.5639ZM165.994 33.5639C165.98 31.9258 167.41 30.8431 169.52 30.8431C171.533 30.8431 172.963 31.9258 172.963 33.5639C172.963 35.2436 171.519 36.257 169.52 36.257C167.41 36.257 165.98 35.2436 165.994 33.5639ZM195.479 32.4811V31.7593H200.754V29.2883H186.956V31.7593H192.37V32.4811C192.342 35.785 190.19 39.0333 186.151 40.366L187.733 42.8092C190.704 41.782 192.842 39.7136 193.966 37.1177C195.118 39.5053 197.187 41.3933 200.032 42.3095L201.615 39.894C197.617 38.6585 195.479 35.6045 195.479 32.4811ZM190.26 51.9712H207.556V49.4725H193.369V43.9475H190.26V51.9712ZM203.753 45.6133H206.862V27.4004H203.753V45.6133ZM230.156 29.5382H218.301V46.6406H220.383C224.867 46.6406 228.254 46.5157 232.1 45.891L231.822 43.3922C228.324 43.9614 225.297 44.128 221.438 44.1419V38.9778H229.712V36.5346H221.438V32.0647H230.156V29.5382ZM233.849 52.471H236.93V39.6719H240.79V37.0899H236.93V27.3726H233.849V52.471ZM262.751 27.4004H259.641V42.1984H262.751V27.4004ZM242.289 34.841C242.289 38.3254 245.176 40.7686 249.063 40.7825C252.936 40.7686 255.824 38.3254 255.81 34.841C255.824 31.3428 252.936 28.8857 249.063 28.8718C245.176 28.8857 242.289 31.3428 242.289 34.841ZM245.315 34.841C245.301 32.7588 246.87 31.4677 249.063 31.4816C251.215 31.4677 252.783 32.7588 252.783 34.841C252.783 36.9094 251.215 38.1727 249.063 38.1727C246.87 38.1727 245.301 36.9094 245.315 34.841ZM245.676 47.5568C245.676 50.6386 248.924 52.4432 254.255 52.4432C259.502 52.4432 262.806 50.6386 262.806 47.5568C262.806 44.4611 259.502 42.6565 254.255 42.6704C248.924 42.6565 245.676 44.4611 245.676 47.5568ZM248.785 47.5568C248.785 45.9187 250.729 45.0858 254.255 45.0858C257.753 45.0858 259.766 45.9187 259.78 47.5568C259.766 49.1532 257.753 50.0139 254.255 50.0278C250.729 50.0139 248.785 49.1532 248.785 47.5568ZM277.826 27.7613C272.121 27.7752 268.775 29.2883 268.775 32.0647C268.775 34.8688 272.121 36.3819 277.826 36.3958C283.546 36.3819 286.863 34.8688 286.877 32.0647C286.863 29.2883 283.546 27.7752 277.826 27.7613ZM266.415 40.1994H289.293V37.7285H266.415V40.1994ZM269.108 44.1696H283.407V45.8354H269.136V52.2489H287.127V49.8889H272.162V48.0288H286.433V41.893H269.108V44.1696ZM272.024 32.0647C272.01 30.7737 274.009 30.0379 277.826 30.0379C281.699 30.0379 283.684 30.7737 283.684 32.0647C283.684 33.4529 281.699 34.0914 277.826 34.0914C274.009 34.0914 272.01 33.4529 272.024 32.0647ZM310.476 29.5382H298.594V41.3933H310.476V29.5382ZM301.453 51.9712H318.528V49.4725H304.535V43.9198H301.453V51.9712ZM301.62 38.9501V32.0091H307.45V38.9501H301.62ZM314.447 45.6966H317.528V37.312H321.027V34.73H317.528V27.3726H314.447V45.6966ZM345.681 37.0621H341.96V27.3726H338.879V52.4154H341.96V39.5886H345.681V37.0621ZM323.192 46.2241H325.302C329.022 46.2103 333.034 45.9881 337.268 45.1414L336.935 42.5316C333.145 43.3228 329.592 43.6144 326.246 43.6699V29.8158H323.192V46.2241ZM369.807 46.9182H359.812V42.0318H367.198V29.0384H364.116V33.1475H352.483V29.0384H349.401V42.0318H356.758V46.9182H346.875V49.4447H369.807V46.9182ZM352.483 39.5331V35.6184H364.116V39.5331H352.483ZM379.275 33.9526V29.5937H376.304V34.0914C376.29 38.367 374.68 42.7953 371.029 45.0025L372.945 47.3069C375.305 45.8632 376.915 43.309 377.817 40.2966C378.65 43.0313 380.122 45.3635 382.384 46.7239L384.078 44.364C380.677 42.2262 379.289 38.0061 379.275 33.9526ZM381.385 38.5614H384.966V51.2494H387.881V27.8168H384.966V36.0071H381.385V38.5614ZM390.13 52.471H393.101V27.3726H390.13V52.471ZM418.949 46.8905H413.674V40.4771C415.617 39.3249 416.797 37.5619 416.783 35.3685C416.797 31.3706 412.855 28.733 407.427 28.733C402.027 28.733 398.112 31.3706 398.126 35.3685C398.112 37.5896 399.32 39.3943 401.319 40.5465V46.8905H396.016V49.417H418.949V46.8905ZM401.153 35.3685C401.139 32.7588 403.679 31.1623 407.427 31.1762C411.161 31.1623 413.757 32.7588 413.757 35.3685C413.757 37.9367 411.161 39.5747 407.427 39.5609C403.679 39.5747 401.139 37.9367 401.153 35.3685ZM404.373 46.8905V41.6709C405.317 41.8652 406.344 41.9763 407.427 41.9763C408.538 41.9763 409.579 41.8652 410.537 41.657V46.8905H404.373ZM425.751 29.8991H421.975L422.308 44.0863H425.446L425.751 29.8991ZM421.725 48.0565C421.712 49.2504 422.697 50.2221 423.891 50.2221C425.043 50.2221 426.029 49.2504 426.029 48.0565C426.029 46.8905 425.043 45.9326 423.891 45.9187C422.697 45.9326 421.712 46.8905 421.725 48.0565Z" fill="white"/>
</svg>
