<svg width="506" height="80" viewBox="0 0 506 80" fill="none" xmlns="http://www.w3.org/2000/svg">
<rect width="506" height="80" rx="4" fill="#E93945"/>
<path d="M117.184 34.3971C117.184 38.6171 118.628 42.7539 122.098 44.6141L120.266 47.0573C118.003 45.7941 116.518 43.6007 115.685 40.9215C114.755 43.8784 113.145 46.3493 110.799 47.7514L108.827 45.5025C112.52 43.337 114.186 38.867 114.186 34.5914V30.0937H117.184V34.3971ZM130.899 27.8726V52.971H127.929V40.2552H125.347V51.7494H122.431V28.3168H125.347V37.7565H127.929V27.8726H130.899ZM156.747 47.5015V50.0558H133.815V47.5015H143.698V43.4203H136.535V35.2022H150.973V32.0927H136.48V29.594H154.027V37.6454H139.617V40.8938H154.61V43.4203H146.752V47.5015H156.747ZM179.569 27.9004V52.9432H176.432V47.1961H171.101V44.864H176.432V27.9004H179.569ZM158.274 40.7827C162.994 40.7827 169.269 40.755 174.71 40.0053L174.905 42.282C172.6 42.6845 170.227 42.9205 167.908 43.0593V52.1936H164.799V43.2259C162.606 43.2953 160.523 43.3092 158.663 43.3092L158.274 40.7827ZM166.52 28.9832C170.213 28.9832 172.906 31.0654 172.906 34.0639C172.906 37.1179 170.213 39.1169 166.52 39.1169C162.744 39.1169 160.079 37.1179 160.079 34.0639C160.079 31.0654 162.744 28.9832 166.52 28.9832ZM166.52 31.3431C164.41 31.3431 162.994 32.4258 162.994 34.0639C162.994 35.7575 164.41 36.757 166.52 36.757C168.519 36.757 169.963 35.7575 169.963 34.0639C169.963 32.4258 168.519 31.3431 166.52 31.3431ZM192.479 32.9811C192.479 36.0907 194.617 39.1447 198.615 40.394L197.032 42.8095C194.187 41.8794 192.118 40.0053 190.98 37.6177C189.842 40.2136 187.718 42.282 184.733 43.3092L183.151 40.866C187.176 39.5333 189.342 36.285 189.37 32.9811V32.2593H183.956V29.7883H197.754V32.2593H192.479V32.9811ZM203.862 27.9004V46.1133H200.753V27.9004H203.862ZM204.556 49.9725V52.4712H187.26V44.4475H190.369V49.9725H204.556ZM227.156 30.0382V32.5647H218.438V37.0346H226.712V39.4778H218.438V44.6419C222.297 44.6141 225.31 44.4753 228.822 43.8922L229.1 46.391C225.24 47.0018 221.881 47.1406 217.383 47.1406H215.301V30.0382H227.156ZM233.93 27.8726V37.5899H237.79V40.1719H233.93V52.971H230.849V27.8726H233.93ZM259.751 27.9004V42.6984H256.641V27.9004H259.751ZM251.255 43.1704C256.502 43.1704 259.806 44.975 259.806 48.0568C259.806 51.1386 256.502 52.9432 251.255 52.9432C245.924 52.9432 242.676 51.1386 242.676 48.0568C242.676 44.975 245.924 43.1704 251.255 43.1704ZM251.255 45.5858C247.729 45.5858 245.785 46.4187 245.785 48.0568C245.785 49.6393 247.729 50.5278 251.255 50.5278C254.753 50.5278 256.752 49.6393 256.78 48.0568C256.752 46.4187 254.753 45.5858 251.255 45.5858ZM246.063 29.3718C249.922 29.3718 252.81 31.8428 252.81 35.341C252.81 38.8115 249.922 41.2825 246.063 41.2825C242.176 41.2825 239.289 38.8115 239.289 35.341C239.289 31.8428 242.176 29.3718 246.063 29.3718ZM246.063 31.9816C243.87 31.9816 242.287 33.2588 242.315 35.341C242.287 37.3955 243.87 38.6727 246.063 38.6727C248.229 38.6727 249.783 37.3955 249.783 35.341C249.783 33.2588 248.229 31.9816 246.063 31.9816ZM274.826 28.2613C280.546 28.2613 283.849 29.7883 283.877 32.5647C283.849 35.3688 280.546 36.868 274.826 36.8958C269.107 36.868 265.775 35.3688 265.775 32.5647C265.775 29.7883 269.107 28.2613 274.826 28.2613ZM274.826 30.5379C270.995 30.5379 268.996 31.2598 269.024 32.5647C268.996 33.9529 270.995 34.5914 274.826 34.5914C278.713 34.5914 280.684 33.9529 280.684 32.5647C280.684 31.2598 278.713 30.5379 274.826 30.5379ZM286.293 38.2285V40.6994H263.415V38.2285H286.293ZM283.433 42.393V48.5288H269.162V50.3889H284.127V52.7489H266.136V46.3354H280.407V44.6696H266.108V42.393H283.433ZM307.476 30.0382V41.8933H295.594V30.0382H307.476ZM298.62 32.5091V39.4501H304.45V32.5091H298.62ZM314.528 27.8726V35.23H318.027V37.812H314.528V46.1966H311.447V27.8726H314.528ZM315.528 49.9725V52.4712H298.453V44.4198H301.535V49.9725H315.528ZM342.681 37.5621V40.0886H338.96V52.9154H335.879V27.8726H338.96V37.5621H342.681ZM323.246 30.3158V44.1699C326.592 44.1144 330.159 43.8228 333.935 43.0316L334.268 45.6414C330.048 46.4743 326.022 46.7241 322.302 46.7241H320.192V30.3158H323.246ZM366.807 47.4182V49.9447H343.875V47.4182H353.758V42.5318H346.401V29.5384H349.483V33.6475H361.116V29.5384H364.198V42.5318H356.812V47.4182H366.807ZM349.483 40.0331H361.116V36.1184H349.483V40.0331ZM376.275 34.4526C376.275 38.5061 377.691 42.7262 381.078 44.864L379.384 47.2239C377.122 45.8635 375.65 43.5174 374.831 40.755C373.915 43.7951 372.305 46.3632 369.945 47.8069L368.029 45.5025C371.666 43.2814 373.304 38.867 373.304 34.5914V30.0937H376.275V34.4526ZM390.101 27.8726V52.971H387.13V27.8726H390.101ZM384.881 28.3168V51.7494H381.966V39.0614H378.385V36.5071H381.966V28.3168H384.881ZM415.949 47.3905V49.917H393.016V47.3905H398.319V41.0326C396.32 39.8943 395.112 38.1035 395.126 35.8685C395.099 31.8706 399.041 29.233 404.427 29.233C409.841 29.233 413.783 31.8706 413.783 35.8685C413.783 38.0619 412.617 39.8249 410.674 40.9771V47.3905H415.949ZM404.427 31.6762C400.679 31.6762 398.125 33.2588 398.153 35.8685C398.125 38.4506 400.679 40.0609 404.427 40.0609C408.175 40.0609 410.757 38.4506 410.757 35.8685C410.757 33.2588 408.175 31.6762 404.427 31.6762ZM401.373 47.3905H407.537V42.1431C406.579 42.3652 405.538 42.4763 404.427 42.4763C403.344 42.4763 402.317 42.3652 401.373 42.1709V47.3905ZM422.751 30.3991L422.446 44.5863H419.308L418.975 30.3991H422.751ZM420.891 50.7221C419.697 50.7221 418.725 49.7504 418.725 48.5565C418.725 47.3905 419.697 46.4187 420.891 46.4187C422.029 46.4187 423.029 47.3905 423.029 48.5565C423.029 49.7504 422.029 50.7221 420.891 50.7221Z" fill="white"/>
<path d="M12 32.1343V19H67L52.5952 63H25.75V32.1343H12Z" fill="black"/>
<path d="M40 49V0H57L40 49Z" fill="white"/>
<path d="M50 19H40V49L50 19Z" fill="#61D4E6"/>
</svg>
