<svg width="15" height="15" viewBox="0 0 15 15" fill="none" xmlns="http://www.w3.org/2000/svg">
<g clip-path="url(#clip0_5329_6996)">
<g opacity="0.5">
<path d="M14.3178 14.9975C14.228 14.9976 14.1391 14.98 14.0562 14.9456C13.9732 14.9112 13.8979 14.8608 13.8345 14.7972L0.174463 1.1397C0.0578054 1.0095 -0.00453543 0.839565 0.000257193 0.664824C0.00504981 0.490083 0.0766117 0.323818 0.200231 0.200211C0.323849 0.0766043 0.49013 0.00504932 0.664888 0.000257168C0.839646 -0.00453499 1.0096 0.0577999 1.13981 0.174446L14.8011 13.8344C14.8963 13.9301 14.961 14.0518 14.9871 14.1841C15.0132 14.3165 14.9995 14.4536 14.9479 14.5782C14.8962 14.7029 14.8088 14.8094 14.6967 14.8845C14.5846 14.9595 14.4527 14.9997 14.3178 15V14.9975Z" fill="white"/>
<path d="M0.682586 15C0.592911 15.0001 0.504098 14.9825 0.421258 14.9481C0.338417 14.9138 0.263183 14.8634 0.199883 14.7999C0.0718973 14.6718 0 14.4981 0 14.317C0 14.136 0.0718973 13.9623 0.199883 13.8342L13.8444 0.190282C13.9733 0.0665141 14.1455 -0.00178698 14.3242 3.55585e-05C14.5028 0.0018581 14.6737 0.073659 14.8 0.200031C14.9264 0.326403 14.9981 0.497276 15 0.675983C15.0018 0.854691 14.9335 1.02699 14.8098 1.15592L1.16404 14.8024C1.03608 14.9295 0.862914 15.0006 0.682586 15Z" fill="white"/>
</g>
</g>
<defs>
<clipPath id="clip0_5329_6996">
<rect width="15" height="15" fill="white"/>
</clipPath>
</defs>
</svg>
