<svg width="279" height="110" viewBox="0 0 279 110" fill="none" xmlns="http://www.w3.org/2000/svg">
<g clip-path="url(#clip0_22_965)">
<path d="M77.423 107L91.4312 63.8749C91.5183 63.6063 91.6993 63.3774 91.9416 63.2295C92.1839 63.0815 92.4716 63.0243 92.7528 63.0681C93.034 63.1118 93.2901 63.2537 93.475 63.4682C93.6599 63.6826 93.7614 63.9555 93.7612 64.2376L93.7612 107L116 107L116 42L75.1702 42L53 106.999L77.423 107Z" fill="white"/>
<path d="M127.296 42.056H150.566V106.963H127.296V42.056ZM0 61.4273H16.7306V106.966H39.239V61.4273H55.9681V42.056H0V61.4273ZM196.442 42.0588V69.1784C196.443 69.4453 196.353 69.7046 196.186 69.9139C196.02 70.1233 195.787 70.2704 195.526 70.3312C195.264 70.3921 194.99 70.3632 194.747 70.2491C194.505 70.1351 194.308 69.9426 194.19 69.7032L180.43 42.0588H158.44V106.967H179.824V79.9965C179.824 79.7301 179.915 79.4715 180.081 79.2628C180.247 79.054 180.48 78.9073 180.74 78.8465C181.001 78.7858 181.275 78.8144 181.517 78.9279C181.759 79.0414 181.956 79.233 182.075 79.4716L195.771 106.965H217.763V42.056L196.442 42.0588ZM244.989 81.0575V66.8781C244.989 63.2905 246.423 60.6535 249.883 59.7495C253.592 58.7875 257.015 61.1345 258.178 64.9739L278.644 54.0723C270.579 39.4431 255.489 39.6426 249.45 40.1688C242.794 40.5731 236.444 43.0866 231.328 47.3413C225.735 52.1003 223.089 59.8641 223.089 68.0537V80.8368C223.089 93.0201 227.924 101.146 236.263 105.897C250.648 114.085 270.836 108.501 279 102.32V71.166H257.868V90.6123C254.872 91.7695 244.994 93.0965 244.994 81.0547" fill="white"/>
<path d="M181 1H198V4H181V1Z" fill="white"/>
<path d="M194.483 6.50072L195.098 4.02449V4H192.154L191.534 6.50072H187.177V4H184.294V6.50072H181V9H198V6.50072H194.483Z" fill="white"/>
<path d="M183.699 18.6985H197.774V13H181V15.4208H195.079V16.2777H181.003V22H198V19.5848H183.699V18.6985Z" fill="white"/>
<path d="M180 9H199V12H180V9Z" fill="white"/>
<path d="M227 1H244V4H227V1Z" fill="white"/>
<path d="M236.939 10.4295V9.02587H244.123V6.47874H240.644L241.302 3H238.382L237.7 6.47874H233.231V3H230.345V6.47874H227.048V9.02587H233.937V10.4295H226V13H245V10.4295H236.939Z" fill="white"/>
<path d="M227 22H244V15H227V22ZM229.845 17.4371H241.156V19.5615H229.845V17.4371Z" fill="white"/>
<path d="M108.972 15H106V22H123V19.2818H108.965L108.972 15Z" fill="white"/>
<path d="M119.987 10H123V1H106V3.60779H119.987V5.14187H106V7.70363H119.987V10Z" fill="white"/>
<path d="M115.072 11.5337V9H112.06V11.5337H105V14H124V11.5337H115.072Z" fill="white"/>
<path d="M137 13.3677V10.6179L131.089 11.0167V8.64136H136.202V5.92288H131.089V3.74269H136.654V1H128V14L136.985 13.3706L137 13.3677Z" fill="white"/>
<path d="M138.102 16H141V1H138.101V6.13794H136V8.78189H138.101L138.102 16Z" fill="white"/>
<path d="M143 1H146V17H143V1Z" fill="white"/>
<path d="M130.902 19.3665V15H128V22H145V19.3665H130.902Z" fill="white"/>
<path d="M158.989 6.47424L165.63 16L168 14.1095L161.793 5.47721H167.567V2.76954H160.466V0H157.318V2.76954H150.388V5.48152H156.163L150 14.0995L152.34 15.9928L158.989 6.47424Z" fill="white"/>
<path d="M150 19H169V22H150V19Z" fill="white"/>
<path d="M216.734 8.84164H218.228V15H221V1H218.228V6.26197H216.731V1.09306H214V14.1214H216.731L216.734 8.84164Z" fill="white"/>
<path d="M213 13.2696V10.7176L206.917 11.1011V8.35727H212.764V1H204V3.53796H209.848V5.83764H204V14L213 13.2696Z" fill="white"/>
<path d="M213.017 15H213.006L204 20.7007L205.615 22.9943L213.006 18.2586L220.369 23L222 20.6951L213.017 15Z" fill="white"/>
<path d="M88.0377 22L84.6432 12.4226H84.3929V22H81V1H84.4164L84.3929 10.3103H84.6432L87.9001 1H91.5902L87.7186 11.1958L92 21.9957L88.0377 22Z" fill="white"/>
<path d="M93 10H100V13H93V10Z" fill="white"/>
<path d="M58 18H61V22H58V18Z" fill="white"/>
<path d="M39.7645 6.89V1H43V22H39.6495L36.2576 9.26286H36.0512L36.2119 14.62V22H33V1H36.7163L39.7453 12.58H39.9739L39.7645 6.89Z" fill="white"/>
<path d="M67 1V22H64.0052V5.94H62V3.94692C62.763 3.99078 63.5115 3.70761 64.0865 3.15759C64.6616 2.60756 65.0178 1.83405 65.0794 1.00142L67 1Z" fill="white"/>
<path d="M56 6.1198V16.8816C56 20.1016 54.1896 22 50.9775 22C47.742 22 46 20.1044 46 16.8816V6.1198C46 2.8746 47.7653 1 50.9775 1C54.2129 1 56 2.8732 56 6.1198ZM52.5683 5.5906C52.5683 4.5224 51.9575 3.8476 51.0298 3.8476C50.8035 3.85005 50.5803 3.89873 50.3749 3.99041C50.1696 4.08209 49.9868 4.21469 49.8386 4.37944C49.6904 4.54419 49.5803 4.73734 49.5154 4.94613C49.4505 5.15491 49.4324 5.37458 49.4623 5.5906V17.3968C49.4623 18.465 50.0963 19.1398 51.0007 19.1398C51.2266 19.1366 51.4491 19.0873 51.6538 18.9953C51.8584 18.9033 52.0405 18.7705 52.1881 18.6059C52.3356 18.4412 52.4452 18.2484 52.5098 18.04C52.5743 17.8316 52.5923 17.6124 52.5625 17.3968L52.5683 5.5906Z" fill="white"/>
</g>
<defs>
<clipPath id="clip0_22_965">
<rect width="279" height="110" fill="white"/>
</clipPath>
</defs>
</svg>
