<svg width="32" height="37" viewBox="0 0 32 37" fill="none" xmlns="http://www.w3.org/2000/svg">
<path d="M16.0036 9.7956C11.4632 9.7956 7.801 13.4587 7.801 18C7.801 22.5413 11.4632 26.2044 16.0036 26.2044C20.5439 26.2044 24.2061 22.5413 24.2061 18C24.2061 13.4587 20.5439 9.7956 16.0036 9.7956ZM16.0036 23.3339C13.0695 23.3339 10.6708 20.9419 10.6708 18C10.6708 15.0581 13.0624 12.6661 16.0036 12.6661C18.9448 12.6661 21.3363 15.0581 21.3363 18C21.3363 20.9419 18.9376 23.3339 16.0036 23.3339ZM26.4549 9.46C26.4549 10.5239 25.5982 11.3736 24.5417 11.3736C23.478 11.3736 22.6284 10.5168 22.6284 9.46C22.6284 8.40321 23.4851 7.54636 24.5417 7.54636C25.5982 7.54636 26.4549 8.40321 26.4549 9.46ZM31.8876 11.4022C31.7662 8.83878 31.1808 6.56811 29.3033 4.69731C27.4329 2.82651 25.1627 2.24099 22.5999 2.11246C19.9585 1.96251 12.0415 1.96251 9.40011 2.11246C6.8444 2.23385 4.57423 2.81937 2.69671 4.69017C0.819186 6.56097 0.240937 8.83164 0.112437 11.3951C-0.0374791 14.037 -0.0374791 21.9558 0.112437 24.5978C0.233798 27.1612 0.819186 29.4319 2.69671 31.3027C4.57423 33.1735 6.83726 33.759 9.40011 33.8875C12.0415 34.0375 19.9585 34.0375 22.5999 33.8875C25.1627 33.7661 27.4329 33.1806 29.3033 31.3027C31.1737 29.4319 31.7591 27.1612 31.8876 24.5978C32.0375 21.9558 32.0375 14.0442 31.8876 11.4022ZM28.4752 27.4326C27.9184 28.8321 26.8404 29.9103 25.434 30.4744C23.3281 31.3098 18.3308 31.117 16.0036 31.117C13.6763 31.117 8.67195 31.3027 6.57312 30.4744C5.1739 29.9174 4.09593 28.8392 3.53196 27.4326C2.69671 25.3261 2.88946 20.3278 2.88946 18C2.88946 15.6722 2.70385 10.6667 3.53196 8.56744C4.08879 7.16791 5.16676 6.0897 6.57312 5.52561C8.67909 4.69017 13.6763 4.88296 16.0036 4.88296C18.3308 4.88296 23.3352 4.69731 25.434 5.52561C26.8332 6.08256 27.9112 7.16077 28.4752 8.56744C29.3104 10.6739 29.1177 15.6722 29.1177 18C29.1177 20.3278 29.3104 25.3333 28.4752 27.4326Z" fill="#6B6B6B"/>
</svg>
