<svg width="34" height="34" viewBox="0 0 34 34" fill="none" xmlns="http://www.w3.org/2000/svg">
<path d="M10.9987 23H7V16H8.00062V22.0571H11L10.9987 23Z" fill="white" stroke="white" stroke-width="0.2" stroke-linejoin="round"/>
<path d="M13 23V16H14V23H13Z" fill="white" stroke="white" stroke-width="0.2" stroke-linejoin="round"/>
<path d="M18.4221 23L16 16H17.1438L18.992 21.7757H19.0213L20.8748 16H22L19.5766 23H18.4221Z" fill="white" stroke="white" stroke-width="0.2" stroke-linejoin="round"/>
<path d="M28 23H23V16H28V16.9361H24.2237V18.9825H27.7991V19.8802H24.2237V22.0529H28V23Z" fill="white" stroke="white" stroke-width="0.2" stroke-linejoin="round"/>
<g opacity="0.901">
<g opacity="0.998">
<path d="M29.6316 10H4.36842C2.50809 10 1 11.452 1 13.2432V26.7568C1 28.548 2.50809 30 4.36842 30H29.6316C31.4919 30 33 28.548 33 26.7568V13.2432C33 11.452 31.4919 10 29.6316 10Z" stroke="white" stroke-width="1.2" stroke-linecap="round" stroke-linejoin="round"/>
</g>
<g opacity="0.998">
<path d="M16 9L12 5" stroke="white" stroke-width="1.2" stroke-linecap="round" stroke-linejoin="round"/>
<path d="M19 9L23 5" stroke="white" stroke-width="1.2" stroke-linecap="round" stroke-linejoin="round"/>
</g>
</g>
</svg>
