<svg width="111" height="26" viewBox="0 0 111 26" fill="none" xmlns="http://www.w3.org/2000/svg">
<path fill-rule="evenodd" clip-rule="evenodd" d="M27.9972 6.61952C27.9972 2.14199 23.3925 0 17.92 0C12.0711 0 6.71379 2.6533 4.74497 6.79718C4.19167 7.90392 3.90283 9.13038 3.9024 10.3749C3.88634 11.4425 4.17966 12.4908 4.74497 13.3864C5.27318 14.1045 5.97014 14.6727 6.77043 15.0378C7.57072 15.4029 8.44808 15.5528 9.32015 15.4735C12.0136 15.4735 14.1846 13.9526 14.1846 11.2704C14.1865 11.1643 14.1661 11.059 14.1248 10.9617C14.0836 10.8645 14.0224 10.7775 13.9455 10.7068C13.8686 10.6361 13.7777 10.5832 13.6792 10.5518C13.5806 10.5205 13.4766 10.5114 13.3743 10.5251C12.6792 10.5251 12.5065 11.0321 12.5318 11.2704C12.594 11.7468 12.5556 12.2314 12.4192 12.6911C12.2827 13.1508 12.0515 13.5748 11.7411 13.9342C11.4308 14.2936 11.0487 14.5798 10.6209 14.7735C10.1932 14.9671 9.72985 15.0635 9.26257 15.0561C6.85983 15.0561 5.84593 12.9386 5.84593 10.6739C5.84593 6.05189 9.23448 3.0115 12.7382 1.66969C14.3856 1.03592 16.1332 0.722474 17.8919 0.745292C21.8885 0.745292 25.131 2.32543 25.131 6.52275C25.0802 8.25854 24.4065 9.91353 23.2396 11.1686C22.0727 12.4237 20.4954 13.1901 18.8117 13.3199L18.9522 12.8433C19.5435 10.1898 20.5509 7.65304 21.9349 5.33259C22.0422 5.14074 22.1683 4.9607 22.3112 4.79529L22.109 4.55697C21.8013 4.73828 21.5104 4.94811 21.2397 5.18382C14.6396 10.4615 14.4346 25.3688 5.66057 25.3688C5.36028 25.3798 5.05968 25.36 4.76323 25.3096C3.96378 25.2406 3.22233 24.8525 2.69746 24.2285C2.1726 23.6044 1.90598 22.7939 1.95465 21.9702C1.95465 21.6424 2.07121 21.1657 2.07121 20.8971C2.07706 20.7752 2.05902 20.6533 2.01815 20.5388C1.97729 20.4242 1.91444 20.3193 1.83334 20.2302C1.75224 20.1411 1.65455 20.0697 1.54608 20.0203C1.43761 19.9708 1.32058 19.9443 1.20195 19.9423H1.12472C0.342526 19.9423 0.0237527 20.5981 0.00128404 21.4921C-0.0562918 24.1454 1.82686 25.6664 4.75059 25.9697C5.06936 25.9697 5.38814 26 5.73359 26C12.5964 26 16.7952 20.6631 18.5913 14.1938C19.4949 14.0698 20.3873 13.8703 21.2594 13.5972C24.4443 12.7032 28 10.4962 28 6.62097" fill="#C4C4C4"/>
<path fill-rule="evenodd" clip-rule="evenodd" d="M67.595 13.182C67.2036 15.5707 66.3072 17.8419 64.9689 19.8354C64.4379 20.655 63.9671 20.8654 63.5535 20.8654C62.9638 20.8654 62.8164 20.3798 62.9037 19.6883C63.3145 17.4772 64.1684 15.3782 65.4111 13.5249C66.0608 12.6141 66.473 12.2492 66.9753 12.2492C67.4476 12.2492 67.595 12.6744 67.595 13.1909M40.3933 20.1738C40.0398 20.1738 39.7736 20.0517 39.7736 19.5662C40.0807 17.6536 40.863 15.8549 42.0448 14.3444C42.3949 13.7615 42.8687 13.2675 43.4308 12.8996C43.9929 12.5316 44.6288 12.2992 45.2906 12.2198L43.7278 15.8025C42.5471 18.5657 41.3378 20.1738 40.3933 20.1738ZM25.0514 20.1738C24.6979 20.1738 24.4618 20.0517 24.4618 19.5662C24.7953 17.6618 25.5748 15.8696 26.733 14.3444C27.0831 13.7615 27.5569 13.2675 28.119 12.8996C28.6811 12.5316 29.3169 12.2992 29.9788 12.2198L28.4446 15.8025C27.2639 18.5039 25.996 20.1738 25.0514 20.1738ZM94.9427 8H92.464L91.9331 9.33598L90.9599 11.5827H89.815L89.4615 12.3419H90.6708L89.2253 15.5906C88.192 17.8977 86.5992 20.1518 85.6847 20.1518C85.4786 20.1518 85.3598 20.0605 85.3598 19.8487C85.3933 19.5116 85.4834 19.183 85.626 18.8776C85.9208 18.1787 86.3931 17.1767 86.7466 16.419C87.3667 15.3135 87.8148 14.1151 88.0747 12.8672C88.0852 12.6639 88.053 12.4607 87.9803 12.2714C87.9076 12.082 87.7961 11.911 87.6534 11.7699C87.5107 11.6287 87.3402 11.5209 87.1533 11.4535C86.9665 11.3862 86.7677 11.361 86.5706 11.3797C85.9659 11.4324 85.3783 11.6133 84.845 11.9111C84.3118 12.2089 83.8443 12.6171 83.4721 13.11L84.0918 11.5915H81.7562L79.8685 15.9938C79.13 17.5549 77.5959 20.1297 76.6227 20.1297C76.4166 20.1297 76.3279 20.0076 76.3279 19.7957C76.3479 19.6073 76.3962 19.4231 76.471 19.2498C76.5597 19.0674 77.6803 16.3351 77.6803 16.3351L79.7154 11.5077H77.2366L75.233 16.2159C74.6434 17.6726 73.0863 20.1326 72.0759 20.1326C72.0329 20.1393 71.989 20.1365 71.9471 20.1245C71.9053 20.1125 71.8663 20.0914 71.8329 20.0628C71.7995 20.0341 71.7724 19.9986 71.7534 19.9583C71.7343 19.9181 71.7238 19.8743 71.7224 19.8296V19.7692C71.771 19.3987 71.8809 19.0394 72.0473 18.7069L73.0806 16.3395L75.2273 11.5121H72.7486L72.2763 12.6053C72.1226 13.0344 71.8568 13.4117 71.5081 13.6956C71.1594 13.9796 70.7414 14.1593 70.2999 14.2149C69.8276 14.2149 69.5915 14.0325 69.5042 13.85C69.5026 13.5055 69.432 13.1649 69.2968 12.8497C69.1615 12.5344 68.9646 12.2512 68.7182 12.0176C68.4718 11.784 68.1812 11.6051 67.8647 11.4921C67.548 11.379 67.2122 11.3343 66.878 11.3605C65.9665 11.3861 65.0769 11.6541 64.2961 12.1383C63.5153 12.6226 62.8699 13.3066 62.4229 14.1237C61.7715 15.155 61.2741 16.2808 60.9473 17.4636C60.0629 18.9512 59.147 20.112 58.4099 20.112C58.3658 20.1187 58.3207 20.1147 58.2783 20.1003C58.2359 20.0859 58.1974 20.0615 58.1659 20.029C58.1343 19.9965 58.1105 19.9569 58.0965 19.9134C58.0825 19.8698 58.0786 19.8235 58.0851 19.7781C58.1443 19.4204 58.2537 19.0735 58.4099 18.7481L60.0328 15.1963C60.4365 14.4115 60.6965 13.5572 60.7999 12.6759C60.8034 12.4958 60.77 12.317 60.7018 12.151C60.6337 11.985 60.5324 11.8357 60.4044 11.7126C60.2765 11.5895 60.1248 11.4955 59.9592 11.4366C59.7936 11.3777 59.6178 11.3553 59.4432 11.3708C58.7781 11.4195 58.1294 11.6059 57.5362 11.9189C56.943 12.232 56.4175 12.6651 55.9913 13.1923C56.0398 13.0149 56.0596 12.8305 56.05 12.6465C56.0733 12.4709 56.0564 12.292 56.0005 12.1244C55.9446 11.9567 55.8513 11.8048 55.7281 11.6808C55.6048 11.5568 55.4551 11.4642 55.2908 11.4104C55.1265 11.3566 54.9523 11.343 54.782 11.3708C54.1598 11.4254 53.5562 11.6162 53.0117 11.9304C52.4672 12.2445 51.9943 12.6748 51.6249 13.1923L52.2732 11.5533H50.0306L48.1129 15.9849C47.1984 18.0448 45.7529 20.1135 44.9271 20.1135C44.7497 20.1135 44.6323 20.0223 44.6323 19.7795C44.7575 19.1603 44.9555 18.559 45.2219 17.9889L47.7594 12.1036C47.9368 11.6474 46.7261 11.3679 45.1919 11.3679C43.5636 11.4508 42.012 12.1045 40.7954 13.2203C40.3071 13.7291 39.6962 14.0957 39.0251 14.2826C38.882 14.2826 38.819 14.1914 38.819 14.1002C38.819 13.7353 39.6448 12.7348 39.6448 11.9447C39.6448 11.5798 39.4673 11.3679 38.995 11.3679C37.8913 11.5818 36.9094 12.2227 36.2515 13.1585L36.9013 11.5489H34.6887L32.8111 15.9761C31.8966 18.036 30.3924 20.2268 29.5953 20.2268C29.3892 20.2268 29.2704 20.1047 29.2704 19.8619C29.3993 19.2062 29.6181 18.5726 29.9202 17.9801L32.4275 12.0947C32.605 11.6386 31.3942 11.3591 29.8615 11.3591C28.7488 11.4315 27.6658 11.7578 26.6912 12.3145C25.7165 12.8711 24.8748 13.6439 24.2271 14.5769C23.0097 16.0228 22.2394 17.8091 22.0145 19.7074C21.9814 19.9666 22.0051 20.2301 22.084 20.4786C22.1628 20.7271 22.2948 20.9543 22.4702 21.1435C22.6456 21.3327 22.86 21.4792 23.0976 21.5721C23.3353 21.665 23.5901 21.7021 23.8435 21.6805C24.4738 21.6082 25.0808 21.3939 25.6213 21.0528C26.1618 20.7118 26.6225 20.2524 26.9706 19.7074C26.9267 19.8767 26.8971 20.0494 26.8818 20.2239C26.8818 21.0743 27.2067 21.6805 28.2099 21.6805C28.8132 21.5834 29.3901 21.358 29.9039 21.0188C30.4177 20.6796 30.857 20.234 31.1939 19.7104L30.4568 21.501H32.8468L35.2011 16.01C35.9682 14.2193 36.8526 13.3086 37.0888 13.3086C37.1775 13.3086 37.2319 13.3395 37.2319 13.3998C37.2319 13.5823 36.8483 14.0987 36.8483 14.5533C36.8483 15.008 37.0845 15.3729 37.7628 15.3729C38.3339 15.3283 38.8835 15.1294 39.3557 14.7961C38.2135 16.1891 37.5045 17.9027 37.3206 19.7148C37.2824 19.9749 37.3025 20.2405 37.3796 20.4914C37.4566 20.7422 37.5884 20.9716 37.7649 21.162C37.9414 21.3525 38.1579 21.4988 38.3979 21.59C38.638 21.6811 38.8951 21.7146 39.1496 21.6878C39.7896 21.5758 40.4003 21.3293 40.9435 20.9638C41.4867 20.5982 41.9508 20.1215 42.3067 19.5632C42.2726 19.764 42.2529 19.9671 42.248 20.1709C42.2308 20.3669 42.2541 20.5644 42.3164 20.7504C42.3788 20.9365 42.4788 21.1068 42.6098 21.2502C42.7408 21.3937 42.8999 21.507 43.0765 21.5827C43.2532 21.6583 43.4435 21.6947 43.6348 21.6893C44.6681 21.6893 45.4638 21.0213 46.4971 19.7472L45.73 21.5128H48.2087L50.4513 16.2601C51.4245 13.9839 52.7827 12.7686 53.431 12.7686C53.5741 12.7377 53.7258 12.8907 53.7559 13.0423V13.1026C53.7186 13.3636 53.6494 13.6187 53.5498 13.8618L50.3039 21.5422H52.8414L55.1126 16.1998C56.1144 13.8927 57.2078 12.7686 58.0035 12.7686C58.2682 12.7686 58.357 12.8907 58.357 13.1629C58.3375 13.4567 58.2677 13.7446 58.1509 14.0134L55.9383 18.8688C55.7254 19.3263 55.5954 19.8199 55.5548 20.3254C55.5548 21.0846 55.9384 21.7217 57.0589 21.7217C58.4743 21.7217 59.5663 20.5991 60.8057 18.9585V19.2925C60.8049 19.6463 60.8771 19.9962 61.0176 20.3192C61.1581 20.6421 61.3636 20.9308 61.6206 21.1661C61.8776 21.4013 62.1802 21.5779 62.5084 21.6841C62.8367 21.7903 63.1831 21.8236 63.5248 21.782C65.7961 21.782 67.5964 20.2033 68.717 17.6534C69.1252 16.7503 69.3941 15.7873 69.5142 14.799C69.761 14.9232 70.0365 14.9741 70.3099 14.9462C70.6823 14.9641 71.0516 14.8689 71.3718 14.6725L70.9883 15.5553C70.546 16.5264 70.0437 17.5887 69.6602 18.498C69.41 19.0313 69.26 19.6084 69.2179 20.1989C69.1979 20.4085 69.2228 20.6201 69.2908 20.8188C69.3588 21.0175 69.4684 21.1985 69.6118 21.349C69.7551 21.4995 69.9289 21.6158 70.1207 21.6899C70.3125 21.7639 70.5178 21.7939 70.7221 21.7776C71.4083 21.6449 72.0608 21.3689 72.6392 20.9668C73.2177 20.5647 73.7098 20.0449 74.0853 19.4396C74.025 19.7188 73.9952 20.0041 73.9965 20.2901C73.9965 21.0493 74.2327 21.7776 75.2359 21.7776C75.8497 21.6924 76.4375 21.4685 76.9571 21.122C77.4768 20.7755 77.9153 20.3151 78.2413 19.7736L77.5043 21.5392H79.983L81.9594 16.8942C83.08 14.2826 84.202 12.7039 85.2639 12.7039C85.3485 12.702 85.4309 12.7317 85.4958 12.7874C85.5608 12.8431 85.604 12.9211 85.6174 13.007V13.0982C85.3335 14.0839 84.9372 15.0316 84.4367 15.9217C84.0324 16.781 83.6506 17.6514 83.2918 18.5318C83.0285 19.0705 82.8778 19.6599 82.8496 20.2621C82.8317 20.454 82.8552 20.6476 82.9185 20.829C82.9819 21.0104 83.0834 21.1752 83.2159 21.3116C83.3485 21.448 83.5086 21.5525 83.685 21.6178C83.8614 21.6831 84.0497 21.7076 84.2364 21.6893C84.9849 21.5593 85.698 21.2674 86.3286 20.833C86.9592 20.3985 87.4929 19.8313 87.8944 19.1689C87.7206 19.6869 87.6312 20.2307 87.6296 20.7786C87.5961 21.0699 87.6256 21.3652 87.7162 21.6434C87.8068 21.9215 87.9562 22.1756 88.1536 22.3875C88.351 22.5993 88.5916 22.7635 88.858 22.8685C89.1245 22.9734 89.4102 23.0164 89.6947 22.9944C90.5005 22.9847 91.2836 22.7195 91.9374 22.2352C92.8482 21.5022 93.6358 20.6204 94.2687 19.625L93.8265 19.1998C93.2962 20.0224 92.6499 20.7592 91.9087 21.3862C91.5546 21.7001 91.1079 21.8821 90.6407 21.9027C90.1098 21.9027 89.7821 21.629 89.7821 20.961C89.8913 19.9804 90.1608 19.0258 90.5792 18.1375C90.5792 18.1375 91.2576 16.5588 91.9073 15.0712C92.4383 13.7956 92.9692 12.5817 93.0522 12.339H94.6751L95 11.5798H93.4071L94.9427 8Z" fill="#C4C4C4"/>
<path fill-rule="evenodd" clip-rule="evenodd" d="M105.324 11.4039L107.582 6H104.906L102.622 11.4039H96.9615L96 13.6581H101.682L99.4271 19H102.102L104.387 13.6581H110.069L111 11.4039H105.324Z" fill="#C4C4C4"/>
</svg>
