<svg width="60" height="60" viewBox="0 0 60 60" fill="none" xmlns="http://www.w3.org/2000/svg">
<g clip-path="url(#clip0_5329_7097)">
<path d="M46 47H13V23H46V46.9988V47ZM29.5503 31.1959C28.9073 31.1959 28.2906 31.4436 27.8359 31.8845C27.3812 32.3255 27.1257 32.9235 27.1257 33.547V37.2241C27.1257 37.8477 27.3812 38.4457 27.8359 38.8866C28.2906 39.3275 28.9073 39.5752 29.5503 39.5752H29.6364C30.2794 39.5752 30.8961 39.3275 31.3508 38.8866C31.8055 38.4457 32.061 37.8477 32.061 37.2241V33.5482C32.061 32.9246 31.8055 32.3266 31.3508 31.8857C30.8961 31.4448 30.2794 31.1971 29.6364 31.1971L29.5503 31.1959Z" fill="white"/>
<path d="M30 11C32.6522 11 35.1957 12.0019 37.0711 13.7852C38.9464 15.5685 40 17.9872 40 20.5091V26.4527C40 31.7083 20.2518 27.3461 20 26.4527V20.5091C20 17.9872 21.0536 15.5685 22.9289 13.7852C24.8043 12.0019 27.3478 11 30 11V11Z" stroke="white" stroke-width="4"/>
</g>
<defs>
<clipPath id="clip0_5329_7097">
<rect width="60" height="60" fill="white"/>
</clipPath>
</defs>
</svg>
