<svg width="60" height="60" viewBox="0 0 60 60" fill="none" xmlns="http://www.w3.org/2000/svg">
<g clip-path="url(#clip0_5329_7094)">
<path d="M10.0348 41.8761L9 51H18.0954L44.9198 24.1763L35.8245 15.0812L10.0348 41.8761ZM49.1156 19.9795C49.713 19.3824 50.1869 18.6735 50.5102 17.8932C50.8336 17.1129 51 16.2765 51 15.4319C51 14.5873 50.8336 13.7509 50.5102 12.9707C50.1869 12.1904 49.713 11.4814 49.1156 10.8844C48.5185 10.287 47.8095 9.81307 47.0292 9.48974C46.2489 9.16642 45.4125 9 44.5679 9C43.7233 9 42.8869 9.16642 42.1066 9.48974C41.3263 9.81307 40.6173 10.287 40.0202 10.8844L38.4194 12.4851L47.5148 21.5803L49.1156 19.9795Z" fill="white"/>
</g>
<defs>
<clipPath id="clip0_5329_7094">
<rect width="60" height="60" fill="white"/>
</clipPath>
</defs>
</svg>
