<svg width="36" height="36" viewBox="0 0 36 36" fill="none" xmlns="http://www.w3.org/2000/svg">
<g clip-path="url(#clip0_15_429)">
<path d="M29.0922 12L24.4438 16.4303C24.7297 17.5215 24.7145 18.6646 24.3995 19.7485C24.0845 20.8324 23.4805 21.8202 22.6463 22.6157C21.8121 23.4112 20.776 23.9874 19.6389 24.2882C18.5019 24.589 17.3026 24.6042 16.1576 24.3324L13 27.3419C14.5427 27.7771 16.1429 27.9987 17.7517 28C21.1692 27.9191 24.4966 26.9376 27.3646 25.1644C30.2326 23.3911 32.5293 20.8955 34 17.9542C32.7827 15.6861 31.1161 13.6641 29.0922 12Z" fill="#A6A6A6"/>
<path d="M29.9231 5L25.0313 9.86698C22.8059 8.79825 20.3675 8.24106 17.8966 8.23663C14.5529 8.31934 11.2977 9.3221 8.49168 11.1337C5.6857 12.9453 3.4388 15.495 2 18.5C3.56211 21.5582 5.9021 24.1557 8.78693 26.0336L2.79187 32H5.87025L33 5H29.9231ZM17.8966 15.116C17.318 15.1123 16.7481 15.2567 16.2416 15.5351C15.735 15.8136 15.3089 16.2168 15.0038 16.7062C14.6988 17.1956 14.5252 17.7547 14.4996 18.3301C14.474 18.9054 14.5973 19.4777 14.8576 19.992L12.4396 22.3984C11.6029 21.2696 11.1506 19.9042 11.149 18.5015C11.149 16.7209 11.8598 15.0132 13.1249 13.7541C14.3901 12.495 16.106 11.7876 17.8952 11.7876C19.3041 11.7895 20.6755 12.2395 21.8092 13.072L19.3913 15.4784C18.928 15.244 18.4163 15.12 17.8966 15.116Z" fill="#A6A6A6"/>
</g>
<defs>
<clipPath id="clip0_15_429">
<rect width="36" height="36" fill="white"/>
</clipPath>
</defs>
</svg>
