<svg width="269" height="57" viewBox="0 0 269 57" fill="none" xmlns="http://www.w3.org/2000/svg">
<g clip-path="url(#clip0_5767_48)">
<path d="M1.29119 45.8966H23.146C24.4531 45.8966 25.4892 45.5793 26.2544 44.9448C27.0514 44.2786 27.4499 43.4062 27.4499 42.3276C27.4499 41.249 27.0514 40.3924 26.2544 39.7579C25.4892 39.0917 24.4531 38.7586 23.146 38.7586H14.0119C11.9715 38.7586 10.1064 38.4414 8.4167 37.8069C6.75887 37.1407 5.3242 36.2207 4.1127 35.0469C2.93309 33.8731 2.00852 32.4614 1.33901 30.8117C0.701383 29.1621 0.382568 27.3379 0.382568 25.3393C0.382568 23.3724 0.701383 21.5959 1.33901 20.0097C2.00852 18.3917 2.93309 17.0117 4.1127 15.8697C5.3242 14.7276 6.75887 13.8552 8.4167 13.2524C10.1064 12.6179 11.9715 12.3007 14.0119 12.3007H36.3449V22.1035H16.4508C15.1437 22.1035 14.0916 22.4366 13.2946 23.1028C12.5294 23.7372 12.1468 24.5938 12.1468 25.6724C12.1468 26.751 12.5294 27.6235 13.2946 28.2897C14.0916 28.9241 15.1437 29.2414 16.4508 29.2414H24.198C26.4616 29.2414 28.518 29.5745 30.3671 30.2407C32.2162 30.8752 33.7944 31.7793 35.1015 32.9531C36.4086 34.1269 37.4129 35.5386 38.1143 37.1883C38.8476 38.8379 39.2142 40.6621 39.2142 42.6607C39.2142 44.6276 38.8476 46.42 38.1143 48.0379C37.4129 49.6241 36.4086 50.9883 35.1015 52.1304C33.7944 53.2724 32.2162 54.1448 30.3671 54.7476C28.518 55.3821 26.4616 55.6993 24.198 55.6993H1.29119V45.8966ZM84.2596 55.6993H72.4953V46.0393H56.0445V55.6993H44.2802V30.7641C44.2802 27.909 44.7584 25.2917 45.7149 22.9124C46.7032 20.5331 48.0741 18.4869 49.8276 16.7738C51.581 15.0607 53.6852 13.7283 56.1401 12.7766C58.595 11.8248 61.3049 11.349 64.2699 11.349C67.2349 11.349 69.9448 11.8248 72.3997 12.7766C74.8545 13.7283 76.9587 15.0607 78.7122 16.7738C80.4657 18.4869 81.8206 20.5331 82.7771 22.9124C83.7654 25.2917 84.2596 27.909 84.2596 30.7641V55.6993ZM72.4953 36.2366V29.8124C72.4953 28.6703 72.304 27.5917 71.9214 26.5766C71.5707 25.5297 71.0447 24.6097 70.3433 23.8166C69.6738 22.9917 68.8289 22.3414 67.8087 21.8655C66.7885 21.3897 65.6089 21.1517 64.2699 21.1517C62.9309 21.1517 61.7512 21.3897 60.731 21.8655C59.7108 22.3414 58.85 22.9917 58.1486 23.8166C57.4791 24.6097 56.9531 25.5297 56.5705 26.5766C56.2198 27.5917 56.0445 28.6703 56.0445 29.8124V36.2366H72.4953ZM90.2573 45.8966H112.112C113.419 45.8966 114.455 45.5793 115.22 44.9448C116.018 44.2786 116.416 43.4062 116.416 42.3276C116.416 41.249 116.018 40.3924 115.22 39.7579C114.455 39.0917 113.419 38.7586 112.112 38.7586H102.978C100.938 38.7586 99.0725 38.4414 97.3828 37.8069C95.7249 37.1407 94.2903 36.2207 93.0788 35.0469C91.8992 33.8731 90.9746 32.4614 90.3051 30.8117C89.6675 29.1621 89.3486 27.3379 89.3486 25.3393C89.3486 23.3724 89.6675 21.5959 90.3051 20.0097C90.9746 18.3917 91.8992 17.0117 93.0788 15.8697C94.2903 14.7276 95.7249 13.8552 97.3828 13.2524C99.0725 12.6179 100.938 12.3007 102.978 12.3007H125.311V22.1035H105.417C104.11 22.1035 103.058 22.4366 102.261 23.1028C101.495 23.7372 101.113 24.5938 101.113 25.6724C101.113 26.751 101.495 27.6235 102.261 28.2897C103.058 28.9241 104.11 29.2414 105.417 29.2414H113.164C115.428 29.2414 117.484 29.5745 119.333 30.2407C121.182 30.8752 122.76 31.7793 124.068 32.9531C125.375 34.1269 126.379 35.5386 127.08 37.1883C127.814 38.8379 128.18 40.6621 128.18 42.6607C128.18 44.6276 127.814 46.42 127.08 48.0379C126.379 49.6241 125.375 50.9883 124.068 52.1304C122.76 53.2724 121.182 54.1448 119.333 54.7476C117.484 55.3821 115.428 55.6993 113.164 55.6993H90.2573V45.8966ZM133.246 55.6993V12.3007H145.011V29.0986H161.461V12.3007H173.226V55.6993H161.461V38.9014H145.011V55.6993H133.246ZM180.228 55.6993V12.3007H191.992V55.6993H180.228ZM198.955 23.0552C198.955 21.3104 199.162 19.7241 199.577 18.2966C199.991 16.8372 200.613 15.6 201.442 14.5848C202.271 13.5379 203.291 12.7448 204.503 12.2055C205.746 11.6345 207.181 11.349 208.807 11.349C210.146 11.349 211.405 11.5552 212.585 11.9676C213.764 12.3483 214.832 12.9193 215.789 13.6807C216.745 14.4104 217.558 15.3304 218.228 16.4407C218.897 17.5193 219.375 18.7724 219.662 20.2L224.205 44.0883H224.684L229.227 20.2C229.514 18.7724 229.976 17.5193 230.614 16.4407C231.283 15.3304 232.096 14.4104 233.052 13.6807C234.009 12.9193 235.077 12.3483 236.257 11.9676C237.468 11.5552 238.743 11.349 240.082 11.349C241.708 11.349 243.127 11.6345 244.338 12.2055C245.582 12.7448 246.618 13.5379 247.447 14.5848C248.276 15.6 248.898 16.8372 249.312 18.2966C249.726 19.7241 249.934 21.3104 249.934 23.0552V55.7469H239.126V23.9593H238.743L234.2 47.8476C233.658 50.7028 232.558 52.8917 230.9 54.4145C229.274 55.9373 227.122 56.6986 224.444 56.6986C221.766 56.6986 219.598 55.9373 217.941 54.4145C216.315 52.8917 215.231 50.7028 214.689 47.8476L210.146 23.9593H209.763V55.7469H198.955V23.0552ZM256.911 55.6993V12.3007H268.676V55.6993H256.911Z" fill="white"/>
</g>
<g clip-path="url(#clip1_5767_48)">
<path d="M2.20758 6.85239V1.70867H0.0947266V0.207818H6.11272V1.70867H3.99987V6.85239H2.20758ZM8.52839 4.91439C8.52839 5.04553 8.56725 5.15239 8.64496 5.23496C8.72753 5.31267 8.83439 5.35153 8.96553 5.35153H12.2805V6.85239H8.33896C8.0961 6.85239 7.8751 6.81353 7.67596 6.73582C7.48167 6.6581 7.3141 6.54881 7.17325 6.40796C7.03725 6.27196 6.93039 6.10439 6.85267 5.90524C6.77496 5.71096 6.7361 5.49239 6.7361 5.24953V0.207818H12.2805V1.70867H8.52839V2.72139H12.2077V4.1931H8.52839V4.91439ZM19.2873 6.85239H17.4951V5.37339H14.9888V6.85239H13.1965V3.03467C13.1965 2.59753 13.2693 2.19682 13.4151 1.83253C13.5656 1.46825 13.7745 1.15496 14.0416 0.892675C14.3088 0.630389 14.6293 0.426389 15.0033 0.280675C15.3773 0.13496 15.7902 0.0621033 16.2419 0.0621033C16.6936 0.0621033 17.1065 0.13496 17.4805 0.280675C17.8545 0.426389 18.1751 0.630389 18.4422 0.892675C18.7093 1.15496 18.9158 1.46825 19.0615 1.83253C19.212 2.19682 19.2873 2.59753 19.2873 3.03467V6.85239ZM17.4951 3.87253V2.88896C17.4951 2.7141 17.4659 2.54896 17.4076 2.39353C17.3542 2.23325 17.2741 2.09239 17.1672 1.97096C17.0652 1.84467 16.9365 1.7451 16.7811 1.67225C16.6256 1.59939 16.4459 1.56296 16.2419 1.56296C16.0379 1.56296 15.8582 1.59939 15.7028 1.67225C15.5473 1.7451 15.4162 1.84467 15.3093 1.97096C15.2073 2.09239 15.1272 2.23325 15.0689 2.39353C15.0155 2.54896 14.9888 2.7141 14.9888 2.88896V3.87253H17.4951ZM20.3541 1.85439C20.3541 1.58725 20.3857 1.34439 20.4489 1.12582C20.512 0.902389 20.6067 0.71296 20.733 0.557532C20.8593 0.397246 21.0147 0.275817 21.1993 0.193246C21.3887 0.105818 21.6073 0.0621033 21.855 0.0621033C22.059 0.0621033 22.2509 0.0936747 22.4306 0.156818C22.6103 0.215103 22.773 0.302532 22.9187 0.419103C23.0644 0.530818 23.1883 0.671675 23.2903 0.841675C23.3923 1.00682 23.4651 1.19867 23.5089 1.41725L24.201 5.07467H24.2738L24.966 1.41725C25.0097 1.19867 25.0801 1.00682 25.1773 0.841675C25.2793 0.671675 25.4031 0.530818 25.5488 0.419103C25.6946 0.302532 25.8573 0.215103 26.037 0.156818C26.2216 0.0936747 26.4158 0.0621033 26.6198 0.0621033C26.8676 0.0621033 27.0837 0.105818 27.2683 0.193246C27.4577 0.275817 27.6156 0.397246 27.7418 0.557532C27.8681 0.71296 27.9628 0.902389 28.026 1.12582C28.0891 1.34439 28.1207 1.58725 28.1207 1.85439V6.85967H26.4741V1.99282H26.4158L25.7237 5.65024C25.6411 6.08739 25.4736 6.42253 25.221 6.65567C24.9733 6.88881 24.6454 7.00539 24.2374 7.00539C23.8294 7.00539 23.4991 6.88881 23.2466 6.65567C22.9988 6.42253 22.8337 6.08739 22.7511 5.65024L22.059 1.99282H22.0007V6.85967H20.3541V1.85439Z" fill="white"/>
</g>
<defs>
<clipPath id="clip0_5767_48">
<rect width="269" height="46" fill="white" transform="translate(0 11)"/>
</clipPath>
<clipPath id="clip1_5767_48">
<rect width="28.449" height="7.28571" fill="white"/>
</clipPath>
</defs>
</svg>
