<svg width="40" height="40" viewBox="0 0 40 40" fill="none" xmlns="http://www.w3.org/2000/svg">
<g clip-path="url(#clip0_5329_5247)">
<path d="M37.4194 0H2.58065C1.15539 0 0 1.15539 0 2.58065V37.4194C0 38.8446 1.15539 40 2.58065 40H37.4194C38.8446 40 40 38.8446 40 37.4194V2.58065C40 1.15539 38.8446 0 37.4194 0Z" fill="black"/>
<path d="M3 14.2979V6.6383C3 6.28578 3.2924 6 3.65311 6H20.6339C20.9946 6 21.287 6.28578 21.287 6.6383V11.4255L24.042 6.33964C24.1552 6.13069 24.3773 6 24.6192 6H37.3464C37.7965 6 38.1117 6.43462 37.9626 6.8497L27.6449 35.5731C27.553 35.8289 27.3059 36 27.0286 36H9.53108C9.17037 36 8.87797 35.7142 8.87797 35.3617V15.5745C8.87797 15.2219 8.58557 14.9362 8.22486 14.9362H3.65311C3.29241 14.9362 3 14.6504 3 14.2979Z" fill="#FF002F"/>
<path fill-rule="evenodd" clip-rule="evenodd" d="M21 21.7112C20.5451 22.4798 19.6707 23 18.6667 23C17.1939 23 16 21.8807 16 20.5C16 19.1193 17.1939 18 18.6667 18C19.6707 18 20.5451 18.5202 21 19.2888C21.4549 18.5202 22.3293 18 23.3333 18C24.8061 18 26 19.1193 26 20.5C26 21.8807 24.8061 23 23.3333 23C22.3293 23 21.4549 22.4798 21 21.7112Z" fill="white"/>
<path fill-rule="evenodd" clip-rule="evenodd" d="M18.2727 22C18.9757 22 19.5455 21.3284 19.5455 20.5C19.5455 19.6716 18.9757 19 18.2727 19C17.5698 19 17 19.6716 17 20.5C17 21.3284 17.5698 22 18.2727 22ZM22.7273 22C23.4302 22 24 21.3284 24 20.5C24 19.6716 23.4302 19 22.7273 19C22.0243 19 21.4545 19.6716 21.4545 20.5C21.4545 21.3284 22.0243 22 22.7273 22Z" fill="#030303"/>
<path fill-rule="evenodd" clip-rule="evenodd" d="M19.5 27C20.3284 27 21 26.2353 21 25.292C21 25.1924 20.9925 25.0949 20.9782 25L18.2917 25.1911C18.1846 25.1988 18.0866 25.2302 18.0001 25.2796C18 25.2838 18 25.2879 18 25.292C18 26.2353 18.6716 27 19.5 27Z" fill="white"/>
<path d="M17 26L25 25" stroke="black" stroke-linecap="round"/>
<path fill-rule="evenodd" clip-rule="evenodd" d="M27.75 23.3333C27.75 23.5174 27.5821 23.6667 27.375 23.6667C27.1679 23.6667 27 23.5174 27 23.3333C27 23.1493 27.1679 23 27.375 23C27.5821 23 27.75 23.1493 27.75 23.3333ZM30 23.3333C30 23.5174 29.8321 23.6667 29.625 23.6667C29.4179 23.6667 29.25 23.5174 29.25 23.3333C29.25 23.1493 29.4179 23 29.625 23C29.8321 23 30 23.1493 30 23.3333ZM28.125 25C28.3321 25 28.5 24.8507 28.5 24.6667C28.5 24.4826 28.3321 24.3333 28.125 24.3333C27.9179 24.3333 27.75 24.4826 27.75 24.6667C27.75 24.8507 27.9179 25 28.125 25Z" fill="#FF305B"/>
<path fill-rule="evenodd" clip-rule="evenodd" d="M12 23.3333C12 23.5174 12.1679 23.6667 12.375 23.6667C12.5821 23.6667 12.75 23.5174 12.75 23.3333C12.75 23.1493 12.5821 23 12.375 23C12.1679 23 12 23.1493 12 23.3333ZM14.25 23.3333C14.25 23.5174 14.4179 23.6667 14.625 23.6667C14.8321 23.6667 15 23.5174 15 23.3333C15 23.1493 14.8321 23 14.625 23C14.4179 23 14.25 23.1493 14.25 23.3333ZM13.875 25C13.6679 25 13.5 24.8507 13.5 24.6667C13.5 24.4826 13.6679 24.3333 13.875 24.3333C14.0821 24.3333 14.25 24.4826 14.25 24.6667C14.25 24.8507 14.0821 25 13.875 25Z" fill="#FF305B"/>
</g>
<defs>
<clipPath id="clip0_5329_5247">
<rect width="40" height="40" fill="white"/>
</clipPath>
</defs>
</svg>
