<svg width="132" height="42" viewBox="0 0 132 42" fill="none" xmlns="http://www.w3.org/2000/svg">
<mask id="mask0_5329_5082" style="mask-type:luminance" maskUnits="userSpaceOnUse" x="0" y="5" width="132" height="32">
<path d="M0 5H132V37H0V5Z" fill="white"/>
</mask>
<g mask="url(#mask0_5329_5082)">
<path d="M86.3575 23.212L92.8741 36H103V6H93.306V18.4883C93.3064 18.677 93.241 18.8604 93.1205 19.0084C93.0001 19.1564 92.8316 19.2604 92.6426 19.3034C92.4536 19.3465 92.2552 19.326 92.0796 19.2453C91.9041 19.1647 91.7619 19.0286 91.6761 18.8593L85.1259 6H75V35.9985H84.723V23.5815C84.723 23.3929 84.7886 23.2098 84.9092 23.062C85.0297 22.9142 85.1982 22.8105 85.3871 22.7676C85.5761 22.7248 85.7743 22.7454 85.9497 22.8261C86.125 22.9068 86.2672 23.0428 86.3529 23.212" fill="white"/>
<path d="M60 6H70V36H60V6Z" fill="white"/>
<path d="M106.009 17.9792V23.5221C106.009 28.9132 108.066 32.8108 112.123 35.1047C118.595 38.7658 127.915 36.5061 132 33.5204V19.5263H122.53V28.3271L122.349 28.397C121.597 28.6854 120.789 28.8037 119.984 28.7432C119.18 28.6828 118.399 28.445 117.699 28.0474C117.041 27.5225 116.527 26.8427 116.203 26.0702C115.88 25.2978 115.758 24.4574 115.848 23.6262V17.4243C115.754 16.6188 115.959 15.8069 116.425 15.1395C116.891 14.4721 117.586 13.9946 118.381 13.796C119.247 13.59 120.159 13.7165 120.933 14.1498C121.708 14.583 122.287 15.2908 122.554 16.13L131.728 11.267C130.559 9.26079 128.85 7.61447 126.791 6.51134C124.732 5.40821 122.404 4.89157 120.066 5.01895C119.447 5.01895 118.845 5.0487 118.271 5.09928C115.171 5.28243 112.211 6.44596 109.83 8.41818C108.541 9.65041 107.534 11.1412 106.876 12.7904C106.218 14.4395 105.925 16.2088 106.016 17.9792" fill="white"/>
<path d="M26 6H0V14.7813H7.82091V36H18.1641V14.7813H25.9925L26 6Z" fill="white"/>
<path d="M37.902 35.9985L44.4378 15.9119C44.4985 15.7212 44.6264 15.5583 44.7982 15.4529C44.97 15.3475 45.1743 15.3065 45.374 15.3374C45.5738 15.3683 45.7557 15.469 45.8868 15.6213C46.0178 15.7735 46.0893 15.9672 46.0883 16.1672L46.0883 36L56 36L56 6L37.2583 6L27 35.9985L37.902 35.9985Z" fill="white"/>
</g>
</svg>
