<svg width="32" height="32" viewBox="0 0 32 32" fill="none" xmlns="http://www.w3.org/2000/svg">
<path d="M28.7107 9.47966C28.7311 9.76403 28.7311 10.0484 28.7311 10.3328C28.7311 19.0062 22.1321 29 10.0711 29C6.35534 29 2.90357 27.9234 0 26.0547C0.52794 26.1156 1.0355 26.1359 1.58376 26.1359C4.64971 26.1359 7.47209 25.1 9.72591 23.3328C6.84265 23.2719 4.42639 21.3828 3.59389 18.7828C4.00002 18.8437 4.40608 18.8843 4.83252 18.8843C5.42133 18.8843 6.01021 18.8031 6.5584 18.6609C3.55333 18.0515 1.29944 15.4109 1.29944 12.2219V12.1406C2.17251 12.6281 3.18783 12.9328 4.26389 12.9734C2.49738 11.7953 1.34007 9.78435 1.34007 7.50933C1.34007 6.2906 1.66488 5.17341 2.23345 4.19841C5.4619 8.17965 10.3147 10.7796 15.7563 11.064C15.6548 10.5765 15.5939 10.0688 15.5939 9.56095C15.5939 5.94528 18.5178 3 22.1523 3C24.0406 3 25.7462 3.79219 26.9442 5.07187C28.4264 4.78751 29.8477 4.23905 31.1066 3.4875C30.6192 5.01098 29.5837 6.29066 28.2234 7.10311C29.5432 6.96099 30.8224 6.59528 32 6.08752C31.1067 7.38747 29.9899 8.54524 28.7107 9.47966Z" fill="#6B6B6B"/>
</svg>
