<svg width="33" height="30" viewBox="0 0 33 30" fill="none" xmlns="http://www.w3.org/2000/svg">
<path d="M31.3522 7.59872C30.9957 6.18218 29.9452 5.06657 28.6115 4.68796C26.194 4 16.5 4 16.5 4C16.5 4 6.80608 4 4.3885 4.68796C3.05475 5.06662 2.0043 6.18218 1.64777 7.59872C1 10.1663 1 15.5232 1 15.5232C1 15.5232 1 20.8802 1.64777 23.4478C2.0043 24.8643 3.05475 25.9334 4.3885 26.312C6.80608 27 16.5 27 16.5 27C16.5 27 26.1939 27 28.6115 26.312C29.9452 25.9334 30.9957 24.8643 31.3522 23.4478C32 20.8802 32 15.5232 32 15.5232C32 15.5232 32 10.1663 31.3522 7.59872ZM13.3295 20.387V10.6595L21.4318 15.5234L13.3295 20.387Z" fill="#6B6B6B"/>
</svg>
